<svg id="Layer_1" data-name="Layer 1" xmlns="http://www.w3.org/2000/svg" xmlns:xlink="http://www.w3.org/1999/xlink" viewBox="0 0 272.33 243.57"><defs><style>.cls-1,.cls-12,.cls-4,.cls-6,.cls-7,.cls-8{fill:none;}.cls-2{clip-path:url(#clip-path);}.cls-3{clip-path:url(#clip-path-2);}.cls-4{stroke:#e6e6e6;}.cls-12,.cls-4,.cls-6,.cls-7,.cls-8{stroke-miterlimit:10;}.cls-4,.cls-7,.cls-8{stroke-width:0.1px;}.cls-5{clip-path:url(#clip-path-3);}.cls-6{stroke:#fff;stroke-width:0.2px;}.cls-7{stroke:#f2f2f2;}.cls-8{stroke:#595959;}.cls-9{font-size:9.96px;font-family:CMR10, CMR10;}.cls-10{clip-path:url(#clip-path-8);}.cls-11{fill:#ccc;}.cls-12{stroke:#999;stroke-width:0.4px;}.cls-13{letter-spacing:0.03em;}.cls-14{letter-spacing:0.33em;}</style><clipPath id="clip-path" transform="translate(-18.44 -37.7)"><polyline class="cls-1" points="-89.65 255.19 -89.65 55.53 432.46 55.53 432.46 255.19"/></clipPath><clipPath id="clip-path-2" transform="translate(-18.44 -37.7)"><rect class="cls-1" x="16.54" y="35.91" width="274.23" height="246.19"/></clipPath><clipPath id="clip-path-3" transform="translate(-18.44 -37.7)"><polyline class="cls-1" points="52.09 396.95 290.73 396.95 290.73 -86.23 52.09 -86.23"/></clipPath><clipPath id="clip-path-8" transform="translate(-18.44 -37.7)"><rect class="cls-1" x="52.09" y="55.53" width="238.64" height="199.66"/></clipPath></defs><title>plot-1</title><g class="cls-2"><g class="cls-3"><path class="cls-4" d="M52.09,71.05H290.72M52.09,97.36H290.72M52.09,123.66H290.72M52.09,150H290.72M52.09,176.28H290.72M52.09,202.58H290.72M52.09,228.89H290.72M52.09,255.19H290.72" transform="translate(-18.44 -37.7)"/></g></g><g class="cls-5"><g class="cls-3"><path class="cls-6" d="M256.63,55.53v4.25M214,55.53v4.25m-42.61-4.25v4.25m-42.61-4.25v4.25M86.18,55.53v4.25M256.63,255.19v-4.25M214,255.19v-4.25m-42.61,4.25v-4.25m-42.61,4.25v-4.25m-42.61,4.25v-4.25" transform="translate(-18.44 -37.7)"/></g></g><g class="cls-2"><g class="cls-3"><path class="cls-7" d="M290.72,71.05h-4.25m4.25,26.31h-4.25m4.25,26.31h-4.25M290.72,150h-4.25m4.25,26.31h-4.25m4.25,26.31h-4.25m4.25,26.31h-4.25m4.25,26.31h-4.25M52.09,71.05h4.25M52.09,97.36h4.25m-4.25,26.31h4.25M52.09,150h4.25m-4.25,26.31h4.25m-4.25,26.31h4.25m-4.25,26.31h4.25m-4.25,26.31h4.25" transform="translate(-18.44 -37.7)"/></g></g><g class="cls-3"><rect class="cls-8" x="33.64" y="17.83" width="238.64" height="199.66"/><text class="cls-9" transform="translate(65.24 227.44)">1</text><text class="cls-9" transform="translate(107.86 227.44)">2</text><text class="cls-9" transform="translate(150.47 227.44)">4</text><text class="cls-9" transform="translate(193.08 227.44)">8</text><text class="cls-9" transform="translate(233.21 227.44)">16</text><text class="cls-9" transform="translate(25.14 220.71)">0</text><text class="cls-9" transform="translate(20.16 194.4)">20</text><text class="cls-9" transform="translate(20.16 168.1)">40</text><text class="cls-9" transform="translate(20.16 141.79)">60</text><text class="cls-9" transform="translate(20.16 115.48)">80</text><text class="cls-9" transform="translate(15.18 89.18)">100</text><text class="cls-9" transform="translate(15.18 62.87)">120</text><text class="cls-9" transform="translate(15.18 36.57)">140</text></g><g class="cls-10"><path class="cls-11" d="M242.46,255.19h28.35V213.1H242.46Zm-42.61,0h28.35V218.36H199.85Zm-42.61,0h28.35V198.64H157.23Zm-42.61,0H143V148.65H114.62Zm-42.61,0h28.35V73.68H72Z" transform="translate(-18.44 -37.7)"/><path class="cls-12" d="M242.46,255.19h28.35V213.1H242.46Zm-42.61,0h28.35V218.36H199.85Zm-42.61,0h28.35V198.64H157.23Zm-42.61,0H143V148.65H114.62Zm-42.61,0h28.35V73.68H72Z" transform="translate(-18.44 -37.7)"/></g><g class="cls-3"><text class="cls-9" transform="translate(129.45 241.08)">Pr<tspan class="cls-13" x="8.56" y="0">o</tspan><tspan x="14.31" y="0">cesoare</tspan></text><text class="cls-9" transform="translate(8.34 135.38) rotate(-90)">Secunde</text><text class="cls-9" transform="translate(124.96 8.34)">Generati<tspan class="cls-14" x="35.64" y="0">a</tspan><tspan x="43.75" y="0">20</tspan></text></g></svg>