<?xml version="1.0" encoding="utf-8"?>
<!-- Generator: Adobe Illustrator 21.0.0, SVG Export Plug-In . SVG Version: 6.00 Build 0)  -->
<svg version="1.1" id="Layer_1" xmlns="http://www.w3.org/2000/svg" xmlns:xlink="http://www.w3.org/1999/xlink" x="0px" y="0px"
	 viewBox="0 0 438.7 91.6" style="enable-background:new 0 0 438.7 91.6;" xml:space="preserve">
<path d="M143.2,23.8c-2.2-6.7-12.9-19.2-16.1-19.2C124,4.6,123,25,116,26.8c-6.8,1.7-39.8,9.5-39.8,9.5s-5.4-4.4-7.1-4.1
	c-1.4,0.3-2.1,6.5-6.3,6.8c-4.3,0.3-9.9,0.1-9.9,0.1C43,19.3,22.3,18.2,22.3,18.2c10.7,15.9,20.9,26.3,6.4,48.3
	c10.1,0,23-15.3,23.9-18.7c3.6-0.9,7.7-0.9,9.9,1.7c1.7,2,1.7,2.9,3,3.2c1.3,0.4,2.8-2.9,5-2.9c2.2,0,13.1,3.4,15.9,4.3
	c2.8,0.9,5.6,10.6,9.1,11c3.5,0.4,11.6-6.5,13.4-6.5c1.9,0,15.7,2.1,31,1.5c2.6,2.8,6,8.5-0.9,19c-1.3,2.1-0.9,5.4,3.4,2.1
	c4.3-3.4,12.2-8.1,20.2-22.6c8.2-0.7,50.9-11.2,50.9-18.8C213.5,32.2,166.6,23.1,143.2,23.8z"/>
<g>
	<g>
		<path d="M292.3,43.5c0.1-0.7-0.3-1.3-1-1.5c-1.3-0.3-2.6-0.4-3.9-0.4c-0.5,0-1,0-1.5,0.1c-0.7,0.1-1.2,0.7-1.1,1.4
			c0,0.3,0.2,0.6,0.4,0.8c0.3,0.2,0.6,0.4,1,0.3c0.4,0,0.9-0.1,1.3-0.1c1.2,0,2.3,0.1,3.4,0.3C291.5,44.6,292.1,44.2,292.3,43.5z"/>
	</g>
</g>
<g>
	<g>
		<path d="M283.4,43.4c-0.2-0.7-0.9-1-1.6-0.8l-0.1,0c-0.6,0.2-1,0.9-0.8,1.6c0.1,0.2,0.2,0.4,0.3,0.5c0.3,0.3,0.8,0.4,1.3,0.3
			l0.1,0C283.3,44.7,283.7,44,283.4,43.4z"/>
	</g>
</g>
<g>
	<g>
		<path d="M284.7,41.3c0-0.7-0.6-1.2-1.3-1.2l-0.2,0c-0.7,0-1.2,0.6-1.2,1.3c0,0.3,0.2,0.6,0.4,0.9c0.2,0.2,0.5,0.4,0.9,0.3l0.2,0
			C284.2,42.5,284.7,42,284.7,41.3z"/>
	</g>
</g>
<g>
	<g>
		<path d="M310.7,48.2c0.3-0.5,0.3-1.1-0.1-1.5c-0.3-0.4-0.6-0.7-0.9-1.1c-3-3.2-6.8-5.7-11.1-7.2c-0.3-0.1-0.6-0.2-1-0.3
			c-0.9-0.3-1.8-0.5-2.6-0.7c-2.4-0.5-5-0.7-7.5-0.7c-4.9,0.1-9.7,1.2-13.8,3c-3.2,1.5-5.9,3.5-8,5.8c-1.2-2.7-4.1-4.6-7.4-4.5
			c-1.4,0-2.7,0.4-3.9,1.1c-0.4,0.2-0.6,0.6-0.6,1.1c0,0.5,0.3,0.9,0.7,1.1c1.7,0.9,2.7,2.5,2.7,4.2c0,1.8-1,3.4-2.6,4.3
			c-0.4,0.2-0.6,0.6-0.6,1.1c0,0.3,0.1,0.6,0.4,0.9c0.1,0.1,0.2,0.2,0.3,0.2c1.2,0.6,2.6,0.9,3.9,0.9c3.3-0.1,6.2-2.1,7.2-4.9
			c0,0,0.1,0.1,0.1,0.1c5.3,5.1,13.3,8.1,21.4,7.9c2.7-0.1,5.4-0.4,8-1.1c0.9-0.2,1.8-0.5,2.6-0.8C303.5,55.3,307.9,52.2,310.7,48.2
			z M258.5,53.5c-0.2,0-0.5,0-0.7,0c1.2-1.4,1.9-3.1,1.9-5c0-1.8-0.8-3.6-2.1-4.9c0.2,0,0.5-0.1,0.7-0.1c3-0.1,5.4,2.1,5.5,4.9
			C263.8,51.1,261.5,53.4,258.5,53.5z M294.7,55.6c-2.4,0.6-4.9,1-7.4,1c-8.1,0.2-15.9-3-20.7-8.3c4.3-5.5,12-8.9,20.9-9.1
			c2.4,0,4.7,0.2,7,0.6c0.3,0.1,0.6,0.1,0.9,0.2c-1.2,2.4-1.9,5-1.8,7.7c0.1,2.7,0.8,5.2,2,7.5C295.3,55.4,295,55.5,294.7,55.6z
			 M306.8,49.1c0,0.1-0.1,0.1-0.1,0.2c0,0-0.1,0.1-0.1,0.1c-0.1,0-0.1,0.1-0.2,0.1c0,0-0.1,0.1-0.1,0.1c-0.1,0-0.1,0.1-0.2,0.1
			c0,0-0.1,0.1-0.1,0.1c-0.1,0-0.1,0.1-0.2,0.1c0,0-0.1,0.1-0.1,0.1c-0.1,0-0.1,0.1-0.2,0.1c0,0-0.1,0.1-0.1,0.1
			c-0.1,0-0.1,0.1-0.2,0.1c0,0-0.1,0.1-0.1,0.1c-0.1,0-0.1,0.1-0.2,0.1c0,0-0.1,0.1-0.1,0.1c-0.1,0.1-0.1,0.1-0.2,0.2
			c0,0-0.1,0.1-0.1,0.1c-0.1,0.1-0.2,0.1-0.3,0.2c0,0,0,0-0.1,0c-0.1,0.1-0.2,0.2-0.3,0.2c0,0,0,0,0,0c-0.1,0.1-0.2,0.1-0.3,0.2
			c0,0-0.1,0-0.1,0.1c-0.1,0.1-0.2,0.1-0.2,0.2c0,0-0.1,0.1-0.1,0.1c-0.1,0-0.1,0.1-0.2,0.1c0,0-0.1,0.1-0.1,0.1
			c-0.1,0-0.1,0.1-0.2,0.1c0,0-0.1,0.1-0.1,0.1c-0.1,0-0.1,0.1-0.2,0.1c0,0-0.1,0.1-0.1,0.1c-0.1,0-0.1,0.1-0.2,0.1
			c0,0-0.1,0.1-0.1,0.1c-0.1,0-0.1,0.1-0.2,0.1c0,0-0.1,0.1-0.1,0.1c-0.1,0-0.2,0.1-0.2,0.1c-0.1,0-0.1,0.1-0.2,0.1
			c-0.1,0-0.2,0.1-0.2,0.1c-0.1,0-0.1,0-0.2,0.1c-0.1,0-0.2,0.1-0.2,0.1c0,0-0.1,0-0.1,0.1c-0.1,0-0.2,0.1-0.3,0.1
			c0,0-0.1,0-0.1,0.1c-0.1,0-0.2,0.1-0.3,0.1c0,0-0.1,0-0.1,0.1c-0.1,0-0.2,0.1-0.3,0.1c0,0-0.1,0-0.1,0c-0.3,0.1-0.5,0.2-0.8,0.3
			c-1.2-2-1.9-4.4-2-6.8c0-2.5,0.6-4.9,1.8-7c0,0,0,0,0.1,0c0.2,0.1,0.5,0.2,0.7,0.2c0,0,0,0,0,0c0.2,0.1,0.5,0.2,0.7,0.3
			c0,0,0,0,0,0c0.2,0.1,0.5,0.2,0.7,0.3c0,0,0,0,0.1,0c0.2,0.1,0.4,0.2,0.6,0.3c0,0,0.1,0,0.1,0c0.2,0.1,0.4,0.2,0.6,0.3
			c0,0,0.1,0,0.1,0c0.2,0.1,0.4,0.2,0.6,0.3c0,0,0.1,0,0.1,0c0.2,0.1,0.4,0.2,0.6,0.4c0,0,0,0,0.1,0c0.2,0.1,0.4,0.3,0.6,0.4
			c0,0,0,0,0,0c0.4,0.3,0.8,0.6,1.2,0.9c0,0,0,0,0,0c0.2,0.1,0.4,0.3,0.6,0.4c0,0,0,0,0.1,0.1c0.2,0.1,0.4,0.3,0.5,0.4
			c0,0,0.1,0,0.1,0.1c0.2,0.1,0.3,0.3,0.5,0.4c0,0,0,0,0.1,0.1c0.2,0.2,0.3,0.3,0.5,0.5c0,0,0,0,0.1,0.1c0.2,0.2,0.3,0.3,0.5,0.5
			c0,0,0,0,0,0c0.2,0.2,0.3,0.3,0.5,0.5c-0.1,0.1-0.2,0.2-0.2,0.3c0,0,0,0.1-0.1,0.1c-0.1,0.1-0.1,0.1-0.2,0.2c0,0-0.1,0.1-0.1,0.1
			c0,0.1-0.1,0.1-0.1,0.2c0,0-0.1,0.1-0.1,0.1c0,0.1-0.1,0.1-0.1,0.2c0,0-0.1,0.1-0.1,0.1c0,0.1-0.1,0.1-0.1,0.2
			C306.8,49,306.8,49,306.8,49.1z"/>
	</g>
</g>
<g>
	<g>
		<path d="M326,71.3c0.1-0.7-0.3-1.3-1-1.5c-1.3-0.3-2.6-0.4-3.9-0.4c-0.5,0-1,0-1.5,0.1c-0.7,0.1-1.2,0.7-1.1,1.4
			c0,0.3,0.2,0.6,0.4,0.8c0.3,0.2,0.6,0.4,1,0.3c0.4,0,0.9-0.1,1.3-0.1c1.2,0,2.3,0.1,3.4,0.3C325.2,72.4,325.9,72,326,71.3z"/>
	</g>
</g>
<g>
	<g>
		<path d="M317.2,71.2c-0.2-0.7-0.9-1-1.6-0.8l-0.1,0c-0.6,0.2-1,0.9-0.8,1.6c0.1,0.2,0.2,0.4,0.3,0.5c0.3,0.3,0.8,0.4,1.3,0.3
			l0.1,0C317.1,72.5,317.4,71.8,317.2,71.2z"/>
	</g>
</g>
<g>
	<g>
		<path d="M335.5,72.7c0-0.7-0.6-1.2-1.3-1.2l-0.2,0c-0.7,0-1.2,0.6-1.2,1.3c0,0.3,0.2,0.6,0.4,0.9c0.2,0.2,0.5,0.4,0.9,0.3l0.2,0
			C335,73.9,335.5,73.4,335.5,72.7z"/>
	</g>
</g>
<g>
	<g>
		<path d="M344.4,76c0.3-0.5,0.3-1.1-0.1-1.5c-0.3-0.4-0.6-0.7-0.9-1.1c-3-3.2-6.8-5.7-11.1-7.2c-0.3-0.1-0.6-0.2-1-0.3
			c-0.9-0.3-1.8-0.5-2.6-0.7c-2.4-0.5-5-0.7-7.5-0.7c-4.9,0.1-9.7,1.2-13.8,3c-3.2,1.5-5.9,3.5-8,5.8c-1.2-2.7-4.1-4.6-7.4-4.5
			c-1.4,0-2.7,0.4-3.9,1.1c-0.4,0.2-0.6,0.6-0.6,1.1c0,0.5,0.3,0.9,0.7,1.1c1.7,0.9,2.7,2.5,2.7,4.2c0,1.8-1,3.4-2.6,4.3
			c-0.4,0.2-0.6,0.6-0.6,1.1c0,0.3,0.1,0.6,0.4,0.9c0.1,0.1,0.2,0.2,0.3,0.2c1.2,0.6,2.6,0.9,3.9,0.9c3.3-0.1,6.2-2.1,7.2-4.9
			c0,0,0.1,0.1,0.1,0.1c5.3,5.1,13.3,8.1,21.4,7.9c2.7-0.1,5.4-0.4,8-1.1c0.9-0.2,1.8-0.5,2.6-0.8C337.3,83.1,341.7,80,344.4,76z
			 M292.2,81.3c-0.2,0-0.5,0-0.7,0c1.2-1.4,1.9-3.1,1.9-5c0-1.8-0.8-3.6-2.1-4.9c0.2,0,0.5-0.1,0.7-0.1c3-0.1,5.4,2.1,5.5,4.9
			C297.6,78.9,295.2,81.2,292.2,81.3z M328.4,83.4c-2.4,0.6-4.9,1-7.4,1c-8.1,0.2-15.9-3-20.7-8.3c4.3-5.5,12-8.9,20.9-9.1
			c2.4,0,4.7,0.2,7,0.6c0.3,0.1,0.6,0.1,0.9,0.2c-1.2,2.4-1.9,5-1.8,7.7c0.1,2.7,0.8,5.2,2,7.5C329,83.3,328.7,83.3,328.4,83.4z
			 M340.5,76.9c0,0.1-0.1,0.1-0.1,0.2c0,0-0.1,0.1-0.1,0.1c-0.1,0-0.1,0.1-0.2,0.1c0,0-0.1,0.1-0.1,0.1c-0.1,0-0.1,0.1-0.2,0.1
			c0,0-0.1,0.1-0.1,0.1c-0.1,0-0.1,0.1-0.2,0.1c0,0-0.1,0.1-0.1,0.1c-0.1,0-0.1,0.1-0.2,0.1c0,0-0.1,0.1-0.1,0.1
			c-0.1,0-0.1,0.1-0.2,0.1c0,0-0.1,0.1-0.1,0.1c-0.1,0-0.1,0.1-0.2,0.1c0,0-0.1,0.1-0.1,0.1c-0.1,0.1-0.1,0.1-0.2,0.2
			c0,0-0.1,0.1-0.1,0.1c-0.1,0.1-0.2,0.1-0.3,0.2c0,0,0,0-0.1,0c-0.1,0.1-0.2,0.2-0.3,0.2c0,0,0,0,0,0c-0.1,0.1-0.2,0.1-0.3,0.2
			c0,0-0.1,0-0.1,0.1c-0.1,0.1-0.2,0.1-0.2,0.2c0,0-0.1,0.1-0.1,0.1c-0.1,0-0.1,0.1-0.2,0.1c0,0-0.1,0.1-0.1,0.1
			c-0.1,0-0.1,0.1-0.2,0.1c0,0-0.1,0.1-0.1,0.1c-0.1,0-0.1,0.1-0.2,0.1c0,0-0.1,0.1-0.1,0.1c-0.1,0-0.1,0.1-0.2,0.1
			c0,0-0.1,0.1-0.1,0.1c-0.1,0-0.1,0.1-0.2,0.1c0,0-0.1,0.1-0.1,0.1c-0.1,0-0.2,0.1-0.2,0.1c-0.1,0-0.1,0.1-0.2,0.1
			c-0.1,0-0.2,0.1-0.2,0.1c-0.1,0-0.1,0-0.2,0.1c-0.1,0-0.2,0.1-0.2,0.1c0,0-0.1,0-0.1,0.1c-0.1,0-0.2,0.1-0.3,0.1
			c0,0-0.1,0-0.1,0.1c-0.1,0-0.2,0.1-0.3,0.1c0,0-0.1,0-0.1,0.1c-0.1,0-0.2,0.1-0.3,0.1c0,0-0.1,0-0.1,0c-0.3,0.1-0.5,0.2-0.8,0.3
			c-1.2-2-1.9-4.4-2-6.8c0-2.5,0.6-4.9,1.8-7c0,0,0,0,0.1,0c0.2,0.1,0.5,0.2,0.7,0.2c0,0,0,0,0,0c0.2,0.1,0.5,0.2,0.7,0.3
			c0,0,0,0,0,0c0.2,0.1,0.5,0.2,0.7,0.3c0,0,0,0,0.1,0c0.2,0.1,0.4,0.2,0.6,0.3c0,0,0.1,0,0.1,0c0.2,0.1,0.4,0.2,0.6,0.3
			c0,0,0.1,0,0.1,0c0.2,0.1,0.4,0.2,0.6,0.3c0,0,0.1,0,0.1,0c0.2,0.1,0.4,0.2,0.6,0.4c0,0,0,0,0.1,0c0.2,0.1,0.4,0.3,0.6,0.4
			c0,0,0,0,0,0c0.4,0.3,0.8,0.6,1.2,0.9c0,0,0,0,0,0c0.2,0.1,0.4,0.3,0.6,0.4c0,0,0,0,0.1,0.1c0.2,0.1,0.4,0.3,0.5,0.4
			c0,0,0.1,0,0.1,0.1c0.2,0.1,0.3,0.3,0.5,0.4c0,0,0,0,0.1,0.1c0.2,0.2,0.3,0.3,0.5,0.5c0,0,0,0,0.1,0.1c0.2,0.2,0.3,0.3,0.5,0.5
			c0,0,0,0,0,0c0.2,0.2,0.3,0.3,0.5,0.5c-0.1,0.1-0.2,0.2-0.2,0.3c0,0,0,0.1-0.1,0.1c-0.1,0.1-0.1,0.1-0.2,0.2c0,0-0.1,0.1-0.1,0.1
			c0,0.1-0.1,0.1-0.1,0.2c0,0-0.1,0.1-0.1,0.1c0,0.1-0.1,0.1-0.1,0.2c0,0-0.1,0.1-0.1,0.1c0,0.1-0.1,0.1-0.1,0.2
			C340.6,76.8,340.5,76.8,340.5,76.9z"/>
	</g>
</g>
<g>
	<g>
		<path d="M378.1,52.4c0.1-0.7-0.3-1.3-1-1.5c-1.3-0.3-2.6-0.4-3.9-0.4c-0.5,0-1,0-1.5,0.1c-0.7,0.1-1.2,0.7-1.1,1.4
			c0,0.3,0.2,0.6,0.4,0.8c0.3,0.2,0.6,0.4,1,0.3c0.4,0,0.9-0.1,1.3-0.1c1.2,0,2.3,0.1,3.4,0.3C377.3,53.5,378,53.1,378.1,52.4z"/>
	</g>
</g>
<g>
	<g>
		<path d="M369.3,52.3c-0.2-0.7-0.9-1-1.6-0.8l-0.1,0c-0.6,0.2-1,0.9-0.8,1.6c0.1,0.2,0.2,0.4,0.3,0.5c0.3,0.3,0.8,0.4,1.3,0.3
			l0.1,0C369.2,53.7,369.5,53,369.3,52.3z"/>
	</g>
</g>
<g>
	<g>
		<path d="M387.6,53.8c0-0.7-0.6-1.2-1.3-1.2l-0.2,0c-0.7,0-1.2,0.6-1.2,1.3c0,0.3,0.2,0.6,0.4,0.9c0.2,0.2,0.5,0.4,0.9,0.3l0.2,0
			C387.1,55.1,387.7,54.5,387.6,53.8z"/>
	</g>
</g>
<g>
	<g>
		<path d="M396.6,57.1c0.3-0.5,0.3-1.1-0.1-1.5c-0.3-0.4-0.6-0.7-0.9-1.1c-3-3.2-6.8-5.7-11.1-7.2c-0.3-0.1-0.6-0.2-1-0.3
			c-0.9-0.3-1.8-0.5-2.6-0.7c-2.4-0.5-5-0.7-7.5-0.7c-4.9,0.1-9.7,1.2-13.8,3c-3.2,1.5-5.9,3.5-8,5.8c-1.2-2.7-4.1-4.6-7.4-4.5
			c-1.4,0-2.7,0.4-3.9,1.1c-0.4,0.2-0.6,0.6-0.6,1.1c0,0.5,0.3,0.9,0.7,1.1c1.7,0.9,2.7,2.5,2.7,4.2c0,1.8-1,3.4-2.6,4.3
			c-0.4,0.2-0.6,0.6-0.6,1.1c0,0.3,0.1,0.6,0.4,0.9c0.1,0.1,0.2,0.2,0.3,0.2c1.2,0.6,2.6,0.9,3.9,0.9c3.3-0.1,6.2-2.1,7.2-4.9
			c0,0,0.1,0.1,0.1,0.1c5.3,5.1,13.3,8.1,21.4,7.9c2.7-0.1,5.4-0.4,8-1.1c0.9-0.2,1.8-0.5,2.6-0.8C389.4,64.3,393.8,61.1,396.6,57.1
			z M344.4,62.4c-0.2,0-0.5,0-0.7,0c1.2-1.4,1.9-3.1,1.9-5c0-1.8-0.8-3.6-2.1-4.9c0.2,0,0.5-0.1,0.7-0.1c3-0.1,5.4,2.1,5.5,4.9
			C349.7,60.1,347.3,62.3,344.4,62.4z M380.6,64.5c-2.4,0.6-4.9,1-7.4,1c-8.1,0.2-15.9-3-20.7-8.3c4.3-5.5,12-8.9,20.9-9.1
			c2.4,0,4.7,0.2,7,0.6c0.3,0.1,0.6,0.1,0.9,0.2c-1.2,2.4-1.9,5-1.8,7.7c0.1,2.7,0.8,5.2,2,7.5C381.2,64.4,380.9,64.5,380.6,64.5z
			 M392.6,58c0,0.1-0.1,0.1-0.1,0.2c0,0-0.1,0.1-0.1,0.1c-0.1,0-0.1,0.1-0.2,0.1c0,0-0.1,0.1-0.1,0.1c-0.1,0-0.1,0.1-0.2,0.1
			c0,0-0.1,0.1-0.1,0.1c-0.1,0-0.1,0.1-0.2,0.1c0,0-0.1,0.1-0.1,0.1c-0.1,0-0.1,0.1-0.2,0.1c0,0-0.1,0.1-0.1,0.1
			c-0.1,0-0.1,0.1-0.2,0.1c0,0-0.1,0.1-0.1,0.1c-0.1,0-0.1,0.1-0.2,0.1c0,0-0.1,0.1-0.1,0.1c-0.1,0.1-0.1,0.1-0.2,0.2
			c0,0-0.1,0.1-0.1,0.1c-0.1,0.1-0.2,0.1-0.3,0.2c0,0,0,0-0.1,0c-0.1,0.1-0.2,0.2-0.3,0.2c0,0,0,0,0,0c-0.1,0.1-0.2,0.1-0.3,0.2
			c0,0-0.1,0-0.1,0.1c-0.1,0.1-0.2,0.1-0.2,0.2c0,0-0.1,0.1-0.1,0.1c-0.1,0-0.1,0.1-0.2,0.1c0,0-0.1,0.1-0.1,0.1
			c-0.1,0-0.1,0.1-0.2,0.1c0,0-0.1,0.1-0.1,0.1c-0.1,0-0.1,0.1-0.2,0.1c0,0-0.1,0.1-0.1,0.1c-0.1,0-0.1,0.1-0.2,0.1
			c0,0-0.1,0.1-0.1,0.1c-0.1,0-0.1,0.1-0.2,0.1c0,0-0.1,0.1-0.1,0.1c-0.1,0-0.2,0.1-0.2,0.1c-0.1,0-0.1,0.1-0.2,0.1
			c-0.1,0-0.2,0.1-0.2,0.1c-0.1,0-0.1,0-0.2,0.1c-0.1,0-0.2,0.1-0.2,0.1c0,0-0.1,0-0.1,0.1c-0.1,0-0.2,0.1-0.3,0.1
			c0,0-0.1,0-0.1,0.1c-0.1,0-0.2,0.1-0.3,0.1c0,0-0.1,0-0.1,0.1c-0.1,0-0.2,0.1-0.3,0.1c0,0-0.1,0-0.1,0c-0.3,0.1-0.5,0.2-0.8,0.3
			c-1.2-2-1.9-4.4-2-6.8c0-2.5,0.6-4.9,1.8-7c0,0,0,0,0.1,0c0.2,0.1,0.5,0.2,0.7,0.2c0,0,0,0,0,0c0.2,0.1,0.5,0.2,0.7,0.3
			c0,0,0,0,0,0c0.2,0.1,0.5,0.2,0.7,0.3c0,0,0,0,0.1,0c0.2,0.1,0.4,0.2,0.6,0.3c0,0,0.1,0,0.1,0c0.2,0.1,0.4,0.2,0.6,0.3
			c0,0,0.1,0,0.1,0c0.2,0.1,0.4,0.2,0.6,0.3c0,0,0.1,0,0.1,0c0.2,0.1,0.4,0.2,0.6,0.4c0,0,0,0,0.1,0c0.2,0.1,0.4,0.3,0.6,0.4
			c0,0,0,0,0,0c0.4,0.3,0.8,0.6,1.2,0.9c0,0,0,0,0,0c0.2,0.1,0.4,0.3,0.6,0.4c0,0,0,0,0.1,0.1c0.2,0.1,0.4,0.3,0.5,0.4
			c0,0,0.1,0,0.1,0.1c0.2,0.1,0.3,0.3,0.5,0.4c0,0,0,0,0.1,0.1c0.2,0.2,0.3,0.3,0.5,0.5c0,0,0,0,0.1,0.1c0.2,0.2,0.3,0.3,0.5,0.5
			c0,0,0,0,0,0c0.2,0.2,0.3,0.3,0.5,0.5c-0.1,0.1-0.2,0.2-0.2,0.3c0,0,0,0.1-0.1,0.1c-0.1,0.1-0.1,0.1-0.2,0.2c0,0-0.1,0.1-0.1,0.1
			c0,0.1-0.1,0.1-0.1,0.2c0,0-0.1,0.1-0.1,0.1c0,0.1-0.1,0.1-0.1,0.2c0,0-0.1,0.1-0.1,0.1c0,0.1-0.1,0.1-0.1,0.2
			C392.7,57.9,392.7,58,392.6,58z"/>
	</g>
</g>
<g>
	<g>
		<path d="M326.2,15.4c0.1-0.7-0.3-1.3-1-1.5c-1.3-0.3-2.6-0.4-3.9-0.4c-0.5,0-1,0-1.5,0.1c-0.7,0.1-1.2,0.7-1.1,1.4
			c0,0.3,0.2,0.6,0.4,0.8c0.3,0.2,0.6,0.4,1,0.3c0.4,0,0.9-0.1,1.3-0.1c1.2,0,2.3,0.1,3.4,0.3C325.4,16.5,326,16,326.2,15.4z"/>
	</g>
</g>
<g>
	<g>
		<path d="M317.4,15.3c-0.2-0.7-0.9-1-1.6-0.8l-0.1,0c-0.6,0.2-1,0.9-0.8,1.6c0.1,0.2,0.2,0.4,0.3,0.5c0.3,0.3,0.8,0.4,1.3,0.3
			l0.1,0C317.2,16.6,317.6,15.9,317.4,15.3z"/>
	</g>
</g>
<g>
	<g>
		<path d="M335.7,16.8c0-0.7-0.6-1.2-1.3-1.2l-0.2,0c-0.7,0-1.2,0.6-1.2,1.3c0,0.3,0.2,0.6,0.4,0.9c0.2,0.2,0.5,0.4,0.9,0.3l0.2,0
			C335.2,18,335.7,17.4,335.7,16.8z"/>
	</g>
</g>
<g>
	<g>
		<path d="M344.6,20.1c0.3-0.5,0.3-1.1-0.1-1.5c-0.3-0.4-0.6-0.7-0.9-1.1c-3-3.2-6.8-5.7-11.1-7.2c-0.3-0.1-0.6-0.2-1-0.3
			c-0.9-0.3-1.8-0.5-2.6-0.7c-2.4-0.5-5-0.7-7.5-0.7c-4.9,0.1-9.7,1.2-13.8,3c-3.2,1.5-5.9,3.5-8,5.8c-1.2-2.7-4.1-4.6-7.4-4.5
			c-1.4,0-2.7,0.4-3.9,1.1c-0.4,0.2-0.6,0.6-0.6,1.1c0,0.5,0.3,0.9,0.7,1.1c1.7,0.9,2.7,2.5,2.7,4.2c0,1.8-1,3.4-2.6,4.3
			c-0.4,0.2-0.6,0.6-0.6,1.1c0,0.3,0.1,0.6,0.4,0.9c0.1,0.1,0.2,0.2,0.3,0.2c1.2,0.6,2.6,0.9,3.9,0.9c3.3-0.1,6.2-2.1,7.2-4.9
			c0,0,0.1,0.1,0.1,0.1c5.3,5.1,13.3,8.1,21.4,7.9c2.7-0.1,5.4-0.4,8-1.1c0.9-0.2,1.8-0.5,2.6-0.8C337.4,27.2,341.8,24.1,344.6,20.1
			z M292.4,25.4c-0.2,0-0.5,0-0.7,0c1.2-1.4,1.9-3.1,1.9-5c0-1.8-0.8-3.6-2.1-4.9c0.2,0,0.5-0.1,0.7-0.1c3-0.1,5.4,2.1,5.5,4.9
			C297.7,23,295.4,25.3,292.4,25.4z M328.6,27.5c-2.4,0.6-4.9,1-7.4,1c-8.1,0.2-15.9-3-20.7-8.3c4.3-5.5,12-8.9,20.9-9.1
			c2.4,0,4.7,0.2,7,0.6c0.3,0.1,0.6,0.1,0.9,0.2c-1.2,2.4-1.9,5-1.8,7.7c0.1,2.7,0.8,5.2,2,7.5C329.2,27.3,328.9,27.4,328.6,27.5z
			 M340.7,21c0,0.1-0.1,0.1-0.1,0.2c0,0-0.1,0.1-0.1,0.1c-0.1,0-0.1,0.1-0.2,0.1c0,0-0.1,0.1-0.1,0.1c-0.1,0-0.1,0.1-0.2,0.1
			c0,0-0.1,0.1-0.1,0.1c-0.1,0-0.1,0.1-0.2,0.1c0,0-0.1,0.1-0.1,0.1c-0.1,0-0.1,0.1-0.2,0.1c0,0-0.1,0.1-0.1,0.1
			c-0.1,0-0.1,0.1-0.2,0.1c0,0-0.1,0.1-0.1,0.1c-0.1,0-0.1,0.1-0.2,0.1c0,0-0.1,0.1-0.1,0.1c-0.1,0.1-0.1,0.1-0.2,0.2
			c0,0-0.1,0.1-0.1,0.1c-0.1,0.1-0.2,0.1-0.3,0.2c0,0,0,0-0.1,0c-0.1,0.1-0.2,0.2-0.3,0.2c0,0,0,0,0,0c-0.1,0.1-0.2,0.1-0.3,0.2
			c0,0-0.1,0-0.1,0.1c-0.1,0.1-0.2,0.1-0.2,0.2c0,0-0.1,0.1-0.1,0.1c-0.1,0-0.1,0.1-0.2,0.1c0,0-0.1,0.1-0.1,0.1
			c-0.1,0-0.1,0.1-0.2,0.1c0,0-0.1,0.1-0.1,0.1c-0.1,0-0.1,0.1-0.2,0.1c0,0-0.1,0.1-0.1,0.1c-0.1,0-0.1,0.1-0.2,0.1
			c0,0-0.1,0.1-0.1,0.1c-0.1,0-0.1,0.1-0.2,0.1c0,0-0.1,0.1-0.1,0.1c-0.1,0-0.2,0.1-0.2,0.1c-0.1,0-0.1,0.1-0.2,0.1
			c-0.1,0-0.2,0.1-0.2,0.1c-0.1,0-0.1,0-0.2,0.1c-0.1,0-0.2,0.1-0.2,0.1c0,0-0.1,0-0.1,0.1c-0.1,0-0.2,0.1-0.3,0.1
			c0,0-0.1,0-0.1,0.1c-0.1,0-0.2,0.1-0.3,0.1c0,0-0.1,0-0.1,0.1c-0.1,0-0.2,0.1-0.3,0.1c0,0-0.1,0-0.1,0c-0.3,0.1-0.5,0.2-0.8,0.3
			c-1.2-2-1.9-4.4-2-6.8c0-2.5,0.6-4.9,1.8-7c0,0,0,0,0.1,0c0.2,0.1,0.5,0.2,0.7,0.2c0,0,0,0,0,0c0.2,0.1,0.5,0.2,0.7,0.3
			c0,0,0,0,0,0c0.2,0.1,0.5,0.2,0.7,0.3c0,0,0,0,0.1,0c0.2,0.1,0.4,0.2,0.6,0.3c0,0,0.1,0,0.1,0c0.2,0.1,0.4,0.2,0.6,0.3
			c0,0,0.1,0,0.1,0c0.2,0.1,0.4,0.2,0.6,0.3c0,0,0.1,0,0.1,0c0.2,0.1,0.4,0.2,0.6,0.4c0,0,0,0,0.1,0c0.2,0.1,0.4,0.3,0.6,0.4
			c0,0,0,0,0,0c0.4,0.3,0.8,0.6,1.2,0.9c0,0,0,0,0,0c0.2,0.1,0.4,0.3,0.6,0.4c0,0,0,0,0.1,0.1c0.2,0.1,0.4,0.3,0.5,0.4
			c0,0,0.1,0,0.1,0.1c0.2,0.1,0.3,0.3,0.5,0.4c0,0,0,0,0.1,0.1c0.2,0.2,0.3,0.3,0.5,0.5c0,0,0,0,0.1,0.1c0.2,0.2,0.3,0.3,0.5,0.5
			c0,0,0,0,0,0c0.2,0.2,0.3,0.3,0.5,0.5c-0.1,0.1-0.2,0.2-0.2,0.3c0,0,0,0.1-0.1,0.1c-0.1,0.1-0.1,0.1-0.2,0.2c0,0-0.1,0.1-0.1,0.1
			c0,0.1-0.1,0.1-0.1,0.2c0,0-0.1,0.1-0.1,0.1c0,0.1-0.1,0.1-0.1,0.2c0,0-0.1,0.1-0.1,0.1c0,0.1-0.1,0.1-0.1,0.2
			C340.7,20.9,340.7,20.9,340.7,21z"/>
	</g>
</g>
<g>
	<g>
		<path d="M397.8,26.7c0.1-0.7-0.3-1.3-1-1.5c-1.3-0.3-2.6-0.4-3.9-0.4c-0.5,0-1,0-1.5,0.1c-0.7,0.1-1.2,0.7-1.1,1.4
			c0,0.3,0.2,0.6,0.4,0.8c0.3,0.2,0.6,0.4,1,0.3c0.4,0,0.9-0.1,1.3-0.1c1.2,0,2.3,0.1,3.4,0.3C397,27.8,397.7,27.4,397.8,26.7z"/>
	</g>
</g>
<g>
	<g>
		<path d="M389,26.6c-0.2-0.7-0.9-1-1.6-0.8l-0.1,0c-0.6,0.2-1,0.9-0.8,1.6c0.1,0.2,0.2,0.4,0.3,0.5c0.3,0.3,0.8,0.4,1.3,0.3l0.1,0
			C388.9,28,389.2,27.3,389,26.6z"/>
	</g>
</g>
<g>
	<g>
		<path d="M407.3,28.1c0-0.7-0.6-1.2-1.3-1.2l-0.2,0c-0.7,0-1.2,0.6-1.2,1.3c0,0.3,0.2,0.6,0.4,0.9c0.2,0.2,0.5,0.4,0.9,0.3l0.2,0
			C406.8,29.3,407.3,28.8,407.3,28.1z"/>
	</g>
</g>
<g>
	<g>
		<path d="M416.2,31.4c0.3-0.5,0.3-1.1-0.1-1.5c-0.3-0.4-0.6-0.7-0.9-1.1c-3-3.2-6.8-5.7-11.1-7.2c-0.3-0.1-0.6-0.2-1-0.3
			c-0.9-0.3-1.8-0.5-2.6-0.7c-2.4-0.5-5-0.7-7.5-0.7c-4.9,0.1-9.7,1.2-13.8,3c-3.2,1.5-5.9,3.5-8,5.8c-1.2-2.7-4.1-4.6-7.4-4.5
			c-1.4,0-2.7,0.4-3.9,1.1c-0.4,0.2-0.6,0.6-0.6,1.1c0,0.5,0.3,0.9,0.7,1.1c1.7,0.9,2.7,2.5,2.7,4.2c0,1.8-1,3.4-2.6,4.3
			c-0.4,0.2-0.6,0.6-0.6,1.1c0,0.3,0.1,0.6,0.4,0.9c0.1,0.1,0.2,0.2,0.3,0.2c1.2,0.6,2.6,0.9,3.9,0.9c3.3-0.1,6.2-2.1,7.2-4.9
			c0,0,0.1,0.1,0.1,0.1c5.3,5.1,13.3,8.1,21.4,7.9c2.7-0.1,5.4-0.4,8-1.1c0.9-0.2,1.8-0.5,2.6-0.8C409.1,38.5,413.5,35.4,416.2,31.4
			z M364,36.7c-0.2,0-0.5,0-0.7,0c1.2-1.4,1.9-3.1,1.9-5c0-1.8-0.8-3.6-2.1-4.9c0.2,0,0.5-0.1,0.7-0.1c3-0.1,5.4,2.1,5.5,4.9
			C369.4,34.4,367,36.6,364,36.7z M400.2,38.8c-2.4,0.6-4.9,1-7.4,1c-8.1,0.2-15.9-3-20.7-8.3c4.3-5.5,12-8.9,20.9-9.1
			c2.4,0,4.7,0.2,7,0.6c0.3,0.1,0.6,0.1,0.9,0.2c-1.2,2.4-1.9,5-1.8,7.7c0.1,2.7,0.8,5.2,2,7.5C400.8,38.7,400.5,38.7,400.2,38.8z
			 M412.3,32.3c0,0.1-0.1,0.1-0.1,0.2c0,0-0.1,0.1-0.1,0.1c-0.1,0-0.1,0.1-0.2,0.1c0,0-0.1,0.1-0.1,0.1c-0.1,0-0.1,0.1-0.2,0.1
			c0,0-0.1,0.1-0.1,0.1c-0.1,0-0.1,0.1-0.2,0.1c0,0-0.1,0.1-0.1,0.1c-0.1,0-0.1,0.1-0.2,0.1c0,0-0.1,0.1-0.1,0.1
			c-0.1,0-0.1,0.1-0.2,0.1c0,0-0.1,0.1-0.1,0.1c-0.1,0-0.1,0.1-0.2,0.1c0,0-0.1,0.1-0.1,0.1c-0.1,0.1-0.1,0.1-0.2,0.2
			c0,0-0.1,0.1-0.1,0.1c-0.1,0.1-0.2,0.1-0.3,0.2c0,0,0,0-0.1,0c-0.1,0.1-0.2,0.2-0.3,0.2c0,0,0,0,0,0c-0.1,0.1-0.2,0.1-0.3,0.2
			c0,0-0.1,0-0.1,0.1c-0.1,0.1-0.2,0.1-0.2,0.2c0,0-0.1,0.1-0.1,0.1c-0.1,0-0.1,0.1-0.2,0.1c0,0-0.1,0.1-0.1,0.1
			c-0.1,0-0.1,0.1-0.2,0.1c0,0-0.1,0.1-0.1,0.1c-0.1,0-0.1,0.1-0.2,0.1c0,0-0.1,0.1-0.1,0.1c-0.1,0-0.1,0.1-0.2,0.1
			c0,0-0.1,0.1-0.1,0.1c-0.1,0-0.1,0.1-0.2,0.1c0,0-0.1,0.1-0.1,0.1c-0.1,0-0.2,0.1-0.2,0.1c-0.1,0-0.1,0.1-0.2,0.1
			c-0.1,0-0.2,0.1-0.2,0.1c-0.1,0-0.1,0-0.2,0.1c-0.1,0-0.2,0.1-0.2,0.1c0,0-0.1,0-0.1,0.1c-0.1,0-0.2,0.1-0.3,0.1
			c0,0-0.1,0-0.1,0.1c-0.1,0-0.2,0.1-0.3,0.1c0,0-0.1,0-0.1,0.1c-0.1,0-0.2,0.1-0.3,0.1c0,0-0.1,0-0.1,0c-0.3,0.1-0.5,0.2-0.8,0.3
			c-1.2-2-1.9-4.4-2-6.8c0-2.5,0.6-4.9,1.8-7c0,0,0,0,0.1,0c0.2,0.1,0.5,0.2,0.7,0.2c0,0,0,0,0,0c0.2,0.1,0.5,0.2,0.7,0.3
			c0,0,0,0,0,0c0.2,0.1,0.5,0.2,0.7,0.3c0,0,0,0,0.1,0c0.2,0.1,0.4,0.2,0.6,0.3c0,0,0.1,0,0.1,0c0.2,0.1,0.4,0.2,0.6,0.3
			c0,0,0.1,0,0.1,0c0.2,0.1,0.4,0.2,0.6,0.3c0,0,0.1,0,0.1,0c0.2,0.1,0.4,0.2,0.6,0.4c0,0,0,0,0.1,0c0.2,0.1,0.4,0.3,0.6,0.4
			c0,0,0,0,0,0c0.4,0.3,0.8,0.6,1.2,0.9c0,0,0,0,0,0c0.2,0.1,0.4,0.3,0.6,0.4c0,0,0,0,0.1,0.1c0.2,0.1,0.4,0.3,0.5,0.4
			c0,0,0.1,0,0.1,0.1c0.2,0.1,0.3,0.3,0.5,0.4c0,0,0,0,0.1,0.1c0.2,0.2,0.3,0.3,0.5,0.5c0,0,0,0,0.1,0.1c0.2,0.2,0.3,0.3,0.5,0.5
			c0,0,0,0,0,0c0.2,0.2,0.3,0.3,0.5,0.5c-0.1,0.1-0.2,0.2-0.2,0.3c0,0,0,0.1-0.1,0.1c-0.1,0.1-0.1,0.1-0.2,0.2c0,0-0.1,0.1-0.1,0.1
			c0,0.1-0.1,0.1-0.1,0.2c0,0-0.1,0.1-0.1,0.1c0,0.1-0.1,0.1-0.1,0.2c0,0-0.1,0.1-0.1,0.1c0,0.1-0.1,0.1-0.1,0.2
			C412.4,32.2,412.3,32.2,412.3,32.3z"/>
	</g>
</g>
</svg>
